<?xml version="1.0" standalone="no"?>
<!DOCTYPE svg PUBLIC "-//W3C//DTD SVG 20010904//EN"
 "http://www.w3.org/TR/2001/REC-SVG-20010904/DTD/svg10.dtd">
<svg version="1.0" xmlns="http://www.w3.org/2000/svg"
 width="1600.000000pt" height="1600.000000pt" viewBox="0 0 1600.000000 1600.000000"
 preserveAspectRatio="xMidYMid meet">

<g transform="translate(0.000000,1600.000000) scale(0.100000,-0.100000)"
fill="#000000" stroke="none">
<path d="M7545 14649 c-1193 -88 -2276 -460 -3261 -1119 -705 -472 -1342
-1109 -1814 -1814 -631 -943 -990 -1951 -1107 -3106 -25 -251 -25 -969 0
-1220 116 -1148 473 -2152 1097 -3090 476 -715 1112 -1354 1824 -1830 943
-631 1951 -990 3106 -1107 251 -25 969 -25 1220 0 862 87 1632 307 2369 677
1034 518 1925 1304 2561 2260 624 938 981 1942 1097 3090 25 251 25 969 0
1220 -87 862 -307 1632 -677 2369 -518 1034 -1304 1925 -2260 2561 -935 622
-1945 982 -3080 1096 -192 19 -881 28 -1075 13z m653 -1989 c321 -35 634 -145
895 -316 129 -85 190 -134 306 -247 308 -302 496 -658 576 -1094 22 -119 31
-421 16 -554 -95 -836 -690 -1518 -1503 -1724 -162 -42 -297 -57 -488 -57
-191 0 -326 15 -488 57 -813 206 -1408 888 -1503 1724 -15 133 -6 435 16 554
80 436 268 792 576 1094 116 113 177 162 306 247 375 246 852 362 1291 316z
m187 -5275 c1188 -104 2437 -539 3076 -1073 324 -271 515 -589 536 -893 l6
-75 -63 -90 c-428 -606 -976 -1099 -1625 -1461 -508 -283 -1125 -484 -1710
-558 -387 -48 -823 -48 -1210 0 -585 74 -1202 275 -1710 558 -649 362 -1197
855 -1625 1461 l-63 90 6 75 c45 651 802 1259 2060 1655 481 152 1048 266
1532 310 206 19 583 19 790 1z"/>
</g>
</svg>
