<?xml version="1.0" standalone="no"?>
<!DOCTYPE svg PUBLIC "-//W3C//DTD SVG 20010904//EN"
 "http://www.w3.org/TR/2001/REC-SVG-20010904/DTD/svg10.dtd">
<svg version="1.0" xmlns="http://www.w3.org/2000/svg"
 width="48.000000pt" height="48.000000pt" viewBox="0 0 48.000000 48.000000"
 preserveAspectRatio="xMidYMid meet">

<g transform="translate(0.000000,48.000000) scale(0.100000,-0.100000)"
fill="#000000" stroke="none">
<path d="M200 448 c-13 -7 -31 -26 -40 -41 -14 -25 -13 -30 2 -57 17 -29 17
-31 -2 -50 -26 -26 -34 -63 -20 -90 6 -11 41 -35 78 -53 68 -33 85 -55 62 -82
-16 -20 -75 -19 -104 1 -33 21 -48 -2 -17 -27 33 -27 82 -33 124 -15 42 17 56
53 39 99 -10 25 -8 34 8 55 39 48 18 88 -69 132 -63 31 -77 50 -61 81 12 22
69 26 100 7 14 -9 22 -10 31 -1 28 28 -86 64 -131 41z m65 -171 c43 -24 54
-51 32 -81 -16 -22 -62 -16 -102 15 -29 24 -32 45 -8 71 21 23 29 23 78 -5z"/>
</g>
</svg>
