<?xml version="1.0" standalone="no"?>
<!DOCTYPE svg PUBLIC "-//W3C//DTD SVG 20010904//EN"
 "http://www.w3.org/TR/2001/REC-SVG-20010904/DTD/svg10.dtd">
<svg version="1.0" xmlns="http://www.w3.org/2000/svg"
 width="48.000000pt" height="48.000000pt" viewBox="0 0 48.000000 48.000000"
 preserveAspectRatio="xMidYMid meet">

<g transform="translate(0.000000,48.000000) scale(0.100000,-0.100000)"
fill="#000000" stroke="none">
<path d="M227 446 c-97 -36 -143 -140 -103 -231 13 -29 12 -31 -45 -91 l-60
-60 24 -22 23 -22 58 59 58 59 34 -14 c99 -41 206 13 234 117 36 131 -96 252
-223 205z m141 -44 c41 -30 66 -85 59 -134 -11 -79 -68 -128 -151 -128 -44 0
-53 4 -92 44 -40 40 -44 48 -44 93 0 122 131 194 228 125z"/>
</g>
</svg>
