<?xml version="1.0" standalone="no"?>
<!DOCTYPE svg PUBLIC "-//W3C//DTD SVG 20010904//EN"
 "http://www.w3.org/TR/2001/REC-SVG-20010904/DTD/svg10.dtd">
<svg version="1.0" xmlns="http://www.w3.org/2000/svg"
 width="48.000000pt" height="48.000000pt" viewBox="0 0 48.000000 48.000000"
 preserveAspectRatio="xMidYMid meet">

<g transform="translate(0.000000,48.000000) scale(0.100000,-0.100000)"
fill="#000000" stroke="none">
<path d="M208 368 l-25 -73 -83 -5 -83 -5 61 -43 c34 -23 64 -47 66 -51 3 -5
-5 -40 -18 -79 -13 -39 -22 -73 -19 -76 3 -2 32 15 66 40 34 24 64 44 67 44 3
0 33 -20 67 -44 34 -25 63 -42 66 -40 3 3 -6 37 -19 76 -13 39 -21 74 -18 79
2 4 32 28 66 51 l61 43 -83 5 -83 5 -25 73 c-13 39 -27 72 -32 72 -5 0 -19
-33 -32 -72z"/>
</g>
</svg>
    